<svg width="827" height="260" viewBox="0 0 827 260" fill="none" xmlns="http://www.w3.org/2000/svg">
<g clip-path="url(#clip0_33_35)">
<g opacity="0.45">
<path opacity="0.6" d="M-34.4583 221C80.4028 203.667 195.264 201.5 310.125 214.5C424.986 227.5 539.847 223.167 654.708 201.5C723.625 195 792.542 197.167 861.458 208" stroke="black" stroke-width="2.5" stroke-linecap="round" stroke-linejoin="round"/>
<path opacity="0.4" d="M-34.4583 240.5C126.347 218.833 275.667 214.5 413.5 227.5C551.333 240.5 700.653 238.333 861.458 221" stroke="black" stroke-width="2" stroke-linecap="round" stroke-linejoin="round"/>
<path opacity="0.3" d="M0 201.5L82.7 143L144.725 175.5L234.317 117L330.8 208L482.417 136.5L585.792 188.5L689.167 110.5L792.542 182L827 162.5" stroke="black" stroke-width="1.5" stroke-linecap="round" stroke-linejoin="round" stroke-dasharray="4 4"/>
<g opacity="0.6">
<path d="M192.967 58.5C196.183 55.0333 199.399 55.0333 202.615 58.5C205.831 55.0333 209.047 55.0333 212.263 58.5" stroke="black" stroke-width="1.5" stroke-linecap="round" stroke-linejoin="round"/>
<path d="M217.087 48.75C219.385 45.7167 221.682 45.7167 223.979 48.75C226.276 45.7167 228.574 45.7167 230.871 48.75" stroke="black" stroke-width="1.5" stroke-linecap="round" stroke-linejoin="round"/>
<path d="M227.425 63.7C229.263 61.5333 231.101 61.5333 232.938 63.7C234.776 61.5333 236.614 61.5333 238.452 63.7" stroke="black" stroke-width="1.5" stroke-linecap="round" stroke-linejoin="round"/>
</g>
<path d="M110.267 214.5C110.267 175.5 96.4833 156 103.375 123.5C106.821 107.25 96.4833 91 93.0375 78" stroke="black" stroke-width="4" stroke-linecap="round" stroke-linejoin="round"/>
<path d="M103.375 143C82.7 130 68.9167 123.5 58.5792 117" stroke="black" stroke-width="2.5" stroke-linecap="round" stroke-linejoin="round"/>
<path d="M104.753 126.75C124.05 113.75 134.387 107.25 144.725 100.75" stroke="black" stroke-width="2.5" stroke-linecap="round" stroke-linejoin="round"/>
<path d="M98.5508 97.5C86.1458 87.75 79.2542 81.25 75.8083 74.75" stroke="black" stroke-width="2" stroke-linecap="round" stroke-linejoin="round"/>
<path opacity="0.7" d="M93.0375 74.75C75.8083 58.5 48.2417 78 58.5792 94.25C41.35 104 48.2417 130 68.9167 126.75C75.8083 143 103.375 143 113.713 130C130.942 136.5 151.617 117 148.171 100.75C158.508 84.5 137.833 65 120.604 71.5C110.267 58.5 99.9292 61.75 93.0375 74.75Z" stroke="black" stroke-width="2" stroke-linecap="round" stroke-linejoin="round"/>
<path d="M48.2417 217.75V136.5" stroke="black" stroke-width="3" stroke-linecap="round" stroke-linejoin="round"/>
<path d="M31.0125 156L48.2417 136.5L65.4708 156" stroke="black" stroke-width="2" stroke-linecap="round" stroke-linejoin="round"/>
<path d="M24.1208 175.5L48.2417 149.5L72.3625 175.5" stroke="black" stroke-width="2" stroke-linecap="round" stroke-linejoin="round"/>
<path d="M17.2292 195L48.2417 165.75L79.2542 195" stroke="black" stroke-width="2" stroke-linecap="round" stroke-linejoin="round"/>
<g opacity="0.75">
<path d="M168.846 81.25C164.251 85.5833 160.806 84.5 158.508 78C163.103 73.6667 166.549 74.75 168.846 81.25ZM158.508 78L168.846 81.25" stroke="black" stroke-width="1.5" stroke-linecap="round" stroke-linejoin="round"/>
<path d="M286.004 50.7C280.031 53.7333 276.586 52 275.667 45.5C281.18 42.0333 284.626 43.7667 286.004 50.7ZM275.667 45.5L286.004 50.7" stroke="black" stroke-width="1.5" stroke-linecap="round" stroke-linejoin="round"/>
<path d="M536.172 66.3C530.199 70.6333 526.064 70.2 523.767 65C528.361 59.8 532.496 60.2333 536.172 66.3ZM523.767 65L536.172 66.3" stroke="black" stroke-width="1.5" stroke-linecap="round" stroke-linejoin="round"/>
<path d="M574.076 94.25C569.022 97.2833 566.036 96.2 565.117 91C568.792 87.5333 571.779 88.6167 574.076 94.25ZM565.117 91L574.076 94.25" stroke="black" stroke-width="1.5" stroke-linecap="round" stroke-linejoin="round"/>
<path d="M756.705 120.9C750.273 124.367 746.138 123.067 744.3 117C749.813 112.667 753.948 113.967 756.705 120.9ZM744.3 117L756.705 120.9" stroke="black" stroke-width="1.5" stroke-linecap="round" stroke-linejoin="round"/>
<path opacity="0.5" d="M151.617 65C165.4 60.6666 176.886 62.8333 186.075 71.5" stroke="black" stroke-width="1.5" stroke-linecap="round" stroke-linejoin="round" stroke-dasharray="2 3"/>
<path opacity="0.5" d="M509.983 55.25C523.767 50.9166 535.253 53.0833 544.442 61.75" stroke="black" stroke-width="1.5" stroke-linecap="round" stroke-linejoin="round" stroke-dasharray="2 3"/>
</g>
</g>
</g>
<defs>
<clipPath id="clip0_33_35">
<rect width="827" height="260" fill="white"/>
</clipPath>
</defs>
</svg>
